@startuml MPO Structures Observatory Formalization
hide members
skinparam style strictuml

class ProjectObservatory <<SubKind>> #C6E0B4 {}
class View <<Role>> #FFE699 {}
class Relator <<Role>> #FFE699 {}
class Disseminator <<Role>> #FFE699 {}
class DataManager <<Role>> #FFE699 {}
class CrudManager <<Role>> #FFE699 {}
class DataSource <<Kind>> #A8D08D {}
class Extract <<relator>> #F4B084 {}
class Collector <<Role>> #FFE699 {}
class Transform <<relator>> #F4B084 {}
class Processor <<Role>> #FFE699 {}
class Load <<relator>> #F4B084 {}
class Storer <<Role>> #FFE699 {}
class Project <<Kind>> #A8D08D {}
class Management <<relator>> #F4B084 {}

ProjectObservatory <|-up- DataManager
ProjectObservatory <|-up- View
View "1" -left- "0..*" Management : <<med>>
Relator --|> View
Disseminator --|> View
DataManager <|-up- CrudManager
DataManager "1" -right- "0..*" Management : <<med>>
DataSource "1" -up- "1..*" Extract : <<med>>
Extract "1..*" -up- "1" Collector : <<med>>
Collector -up-|> DataManager
Collector "1" -down- "1..*" Transform: <<med>>
Transform "1..*" -up- "1" Processor: <<med>>
Processor -up-|> DataManager
Processor "1" -down- "1..*" Load: <<med>>
Load "1..*" -up- "1" Storer: <<med>>
Storer -up-|> DataManager
Project "1" -down- "0..*" Management : <<med>>

@enduml
